<?xml version="1.0" encoding="UTF-8" standalone="no"?>
<svg
   xmlns:dc="http://purl.org/dc/elements/1.1/"
   xmlns:cc="http://creativecommons.org/ns#"
   xmlns:rdf="http://www.w3.org/1999/02/22-rdf-syntax-ns#"
   xmlns:svg="http://www.w3.org/2000/svg"
   xmlns="http://www.w3.org/2000/svg"
   viewBox="0 0 374.66666 496"
   height="496"
   width="374.66666"
   xml:space="preserve"
   id="svg2"
   version="1.1"><metadata
     id="metadata8"><rdf:RDF><cc:Work
         rdf:about=""><dc:format>image/svg+xml</dc:format><dc:type
           rdf:resource="http://purl.org/dc/dcmitype/StillImage" /></cc:Work></rdf:RDF></metadata><defs
     id="defs6" /><g
     transform="matrix(1.3333333,0,0,-1.3333333,0,496)"
     id="g10"><g
       transform="scale(0.1)"
       id="g12"><path
         id="path14"
         style="fill:#000000;fill-opacity:1;fill-rule:nonzero;stroke:none"
         d="m 2790.43,2992.44 -704.02,703.98 c -11.21,11.25 -26.49,17.58 -42.43,17.58 H 188.012 C 84.3398,3714 0,3629.66 0,3525.99 V 197.98 C 0,94.3516 84.3398,10.0195 188.012,10.0195 H 2620 c 103.67,0 188.01,84.3321 188.01,187.9605 v 2752.04 c 0,15.89 -6.33,31.17 -17.58,42.42 z m -686.45,516.72 499.18,-499.14 h -431.17 c -37.5,0 -68.01,30.5 -68.01,67.96 z M 2620,130.02 H 188.012 c -37.5,0 -68.012,30.5 -68.012,67.96 v 3328.01 c 0,37.5 30.512,68.01 68.012,68.01 H 1983.98 v -516.02 c 0,-103.63 84.34,-187.96 188.01,-187.96 h 516.02 V 197.98 c 0,-37.46 -30.51,-67.96 -68.01,-67.96 z" /><path
         id="path16"
         style="fill:#000000;fill-opacity:1;fill-rule:nonzero;stroke:none"
         d="m 443.98,3210.02 h 448.008 c 33.133,0 60,26.83 60,60 0,33.12 -26.867,60 -60,60 H 443.98 c -33.121,0 -60,-26.88 -60,-60 0,-33.17 26.879,-60 60,-60 z" /><path
         id="path18"
         style="fill:#000000;fill-opacity:1;fill-rule:nonzero;stroke:none"
         d="m 443.98,2890.02 h 704.03 c 33.12,0 60,26.83 60,60 0,33.12 -26.88,60 -60,60 H 443.98 c -33.121,0 -60,-26.88 -60,-60 0,-33.17 26.879,-60 60,-60 z" /><path
         id="path20"
         style="fill:#000000;fill-opacity:1;fill-rule:nonzero;stroke:none"
         d="m 960,2437.98 c 0,-33.12 26.879,-60 60,-60 h 768.01 c 33.12,0 60,26.88 60,60 0,33.17 -26.88,60 -60,60 H 1020 c -33.121,0 -60,-26.83 -60,-60 z" /><path
         id="path22"
         style="fill:#000000;fill-opacity:1;fill-rule:nonzero;stroke:none"
         d="m 2363.98,2177.98 h -1920 c -33.121,0 -60,-26.83 -60,-60 0,-33.12 26.879,-60 60,-60 h 1920 c 33.17,0 60,26.88 60,60 0,33.17 -26.83,60 -60,60 z" /><path
         id="path24"
         style="fill:#000000;fill-opacity:1;fill-rule:nonzero;stroke:none"
         d="m 1596.02,1025.99 h -448.01 c -33.13,0 -60,-26.869 -60,-60.002 0,-33.117 26.87,-60 60,-60 h 448.01 c 33.12,0 60,26.883 60,60 0,33.133 -26.88,60.002 -60,60.002 z" /><path
         id="path26"
         style="fill:#000000;fill-opacity:1;fill-rule:nonzero;stroke:none"
         d="m 1596.02,705.988 h -448.01 c -33.13,0 -60,-26.867 -60,-60 0,-33.117 26.87,-60 60,-60 h 448.01 c 33.12,0 60,26.883 60,60 0,33.133 -26.88,60 -60,60 z" /><path
         id="path28"
         style="fill:#000000;fill-opacity:1;fill-rule:nonzero;stroke:none"
         d="m 2363.98,1857.98 h -1920 c -33.121,0 -60,-26.83 -60,-60 0,-33.12 26.879,-60 60,-60 h 1920 c 33.17,0 60,26.88 60,60 0,33.17 -26.83,60 -60,60 z" /><path
         id="path30"
         style="fill:#000000;fill-opacity:1;fill-rule:nonzero;stroke:none"
         d="m 2363.98,1537.98 h -1920 c -33.121,0 -60,-26.83 -60,-60 0,-33.12 26.879,-60 60,-60 h 1920 c 33.17,0 60,26.88 60,60 0,33.17 -26.83,60 -60,60 z" /><path
         id="path32"
         style="fill:#000000;fill-opacity:1;fill-rule:nonzero;stroke:none"
         d="m 2108.01,1090.02 c -174.26,0 -316.02,-141.758 -316.02,-316.02 0,-174.262 141.76,-316.02 316.02,-316.02 174.22,0 315.97,141.758 315.97,316.02 0,174.262 -141.75,316.02 -315.97,316.02 z m 0,-512.04 c -108.09,0 -196.02,87.93 -196.02,196.02 0,108.09 87.93,196.02 196.02,196.02 108.04,0 195.97,-87.93 195.97,-196.02 0,-108.09 -87.93,-196.02 -195.97,-196.02 z" /><path
         id="path34"
         style="fill:#000000;fill-opacity:1;fill-rule:nonzero;stroke:none"
         d="M 2108.01,882.012 C 2048.44,882.012 2000,833.57 2000,774 c 0,-59.57 48.44,-108.012 108.01,-108.012 59.53,0 108.01,48.442 108.01,108.012 0,59.57 -48.48,108.012 -108.01,108.012 z" /></g></g></svg>