<?xml version="1.0" encoding="UTF-8" standalone="no"?>
<svg
   xmlns:dc="http://purl.org/dc/elements/1.1/"
   xmlns:cc="http://creativecommons.org/ns#"
   xmlns:rdf="http://www.w3.org/1999/02/22-rdf-syntax-ns#"
   xmlns:svg="http://www.w3.org/2000/svg"
   xmlns="http://www.w3.org/2000/svg"
   viewBox="0 0 48.266666 58.933334"
   height="58.933334"
   width="48.266666"
   xml:space="preserve"
   id="svg2"
   version="1.1"><metadata
     id="metadata8"><rdf:RDF><cc:Work
         rdf:about=""><dc:format>image/svg+xml</dc:format><dc:type
           rdf:resource="http://purl.org/dc/dcmitype/StillImage" /></cc:Work></rdf:RDF></metadata><defs
     id="defs6" /><g
     transform="matrix(1.3333333,0,0,-1.3333333,0,58.933333)"
     id="g10"><g
       transform="scale(0.1)"
       id="g12"><path
         id="path14"
         style="fill:#000000;fill-opacity:1;fill-rule:nonzero;stroke:none"
         d="m 341.016,62.8125 c 0,-23.0547 -18.789,-41.8437 -41.836,-41.8437 H 62.8086 c -23.0391,0 -41.7891,18.789 -41.7891,41.8437 V 219.18 c 0,23.043 18.75,41.793 41.7891,41.793 H 299.18 c 23.047,0 41.836,-18.75 41.836,-41.793 z M 68.9805,320.973 c 0,55.156 50.2775,100 112.0355,100 61.757,0 111.992,-44.844 111.992,-100 V 276.992 H 68.9805 Z M 308.984,276.09 v 44.883 c 0,63.988 -57.421,116.019 -127.968,116.019 -70.586,0 -128.0082,-52.031 -128.0082,-116.019 V 276.09 C 25.7813,271.402 5,247.691 5,219.141 V 62.8125 C 5,30.9375 30.9414,5 62.8086,5 H 299.18 c 31.875,0 57.812,25.9375 57.812,57.8125 V 219.18 c 0,28.511 -20.781,52.222 -48.008,56.91" /><path
         id="path16"
         style="fill:none;stroke:#000000;stroke-width:10;stroke-linecap:butt;stroke-linejoin:miter;stroke-miterlimit:10;stroke-dasharray:none;stroke-opacity:1"
         d="m 341.016,62.8125 c 0,-23.0547 -18.789,-41.8437 -41.836,-41.8437 H 62.8086 c -23.0391,0 -41.7891,18.789 -41.7891,41.8437 V 219.18 c 0,23.043 18.75,41.793 41.7891,41.793 H 299.18 c 23.047,0 41.836,-18.75 41.836,-41.793 z M 68.9805,320.973 c 0,55.156 50.2775,100 112.0355,100 61.757,0 111.992,-44.844 111.992,-100 V 276.992 H 68.9805 Z M 308.984,276.09 v 44.883 c 0,63.988 -57.421,116.019 -127.968,116.019 -70.586,0 -128.0082,-52.031 -128.0082,-116.019 V 276.09 C 25.7813,271.402 5,247.691 5,219.141 V 62.8125 C 5,30.9375 30.9414,5 62.8086,5 H 299.18 c 31.875,0 57.812,25.9375 57.812,57.8125 V 219.18 c 0,28.511 -20.781,52.222 -48.008,56.91 z" /><path
         id="path18"
         style="fill:#000000;fill-opacity:1;fill-rule:nonzero;stroke:none"
         d="m 196.992,133.008 c 0,-8.828 -7.187,-16.016 -15.976,-16.016 -8.825,0 -16.016,7.188 -16.016,16.016 v 47.961 c 0,8.836 7.191,16.023 16.016,16.023 8.789,0 15.976,-7.187 15.976,-16.023 z m -15.976,80 c -17.657,0 -32.036,-14.375 -32.036,-32.039 v -47.961 c 0,-17.656 14.379,-32.039 32.036,-32.039 17.617,0 31.992,14.383 31.992,32.039 v 47.961 c 0,17.664 -14.375,32.039 -31.992,32.039" /><path
         id="path20"
         style="fill:none;stroke:#000000;stroke-width:10;stroke-linecap:butt;stroke-linejoin:miter;stroke-miterlimit:10;stroke-dasharray:none;stroke-opacity:1"
         d="m 196.992,133.008 c 0,-8.828 -7.187,-16.016 -15.976,-16.016 -8.825,0 -16.016,7.188 -16.016,16.016 v 47.961 c 0,8.836 7.191,16.023 16.016,16.023 8.789,0 15.976,-7.187 15.976,-16.023 z m -15.976,80 c -17.657,0 -32.036,-14.375 -32.036,-32.039 v -47.961 c 0,-17.656 14.379,-32.039 32.036,-32.039 17.617,0 31.992,14.383 31.992,32.039 v 47.961 c 0,17.664 -14.375,32.039 -31.992,32.039 z" /></g></g></svg>