<?xml version="1.0" encoding="UTF-8" standalone="no"?>
<svg
   xmlns:dc="http://purl.org/dc/elements/1.1/"
   xmlns:cc="http://creativecommons.org/ns#"
   xmlns:rdf="http://www.w3.org/1999/02/22-rdf-syntax-ns#"
   xmlns:svg="http://www.w3.org/2000/svg"
   xmlns="http://www.w3.org/2000/svg"
   viewBox="0 0 64 54.666668"
   height="54.666668"
   width="64"
   xml:space="preserve"
   id="svg2"
   version="1.1"><metadata
     id="metadata8"><rdf:RDF><cc:Work
         rdf:about=""><dc:format>image/svg+xml</dc:format><dc:type
           rdf:resource="http://purl.org/dc/dcmitype/StillImage" /></cc:Work></rdf:RDF></metadata><defs
     id="defs6" /><g
     transform="matrix(1.3333333,0,0,-1.3333333,0,54.666667)"
     id="g10"><g
       transform="scale(0.1)"
       id="g12"><path
         id="path14"
         style="fill:#000000;fill-opacity:1;fill-rule:nonzero;stroke:none"
         d="M 441.602,322 H 373.398 L 341.41,402 H 138.59 L 106.602,322 H 96.0195 v 40 H 48.0117 V 322 H 38.3984 C 17.2305,322 0,304.77 0,283.602 V 48.6797 C 0,27.3516 17.3398,10.0117 38.6719,10.0117 H 441.328 c 21.332,0 38.672,17.3399 38.672,38.668 V 283.602 C 480,304.77 462.77,322 441.602,322 Z M 63.9805,345.98 H 80 V 322 H 63.9805 Z M 463.98,48.6797 c 0,-12.5391 -10.152,-22.6992 -22.652,-22.6992 H 38.6719 c -12.5,0 -22.6524,10.1992 -22.6524,22.6992 V 283.602 c 0,12.347 10.0313,22.378 22.3789,22.378 h 79.0236 l 31.988,80 h 181.18 l 31.988,-80 h 79.024 c 12.347,0 22.378,-10.031 22.378,-22.378 z" /><path
         id="path16"
         style="fill:#000000;fill-opacity:1;fill-rule:nonzero;stroke:none"
         d="M 240,330.012 C 160.59,330.012 96.0195,265.398 96.0195,185.98 96.0195,106.609 160.59,42 240,42 c 79.41,0 143.98,64.609 143.98,143.98 0,79.418 -64.57,144.032 -143.98,144.032 z m 0,-271.9925 c -70.59,0 -128.012,57.4215 -128.012,127.9605 0,70.59 57.422,128.008 128.012,128.008 70.59,0 128.012,-57.418 128.012,-128.008 C 368.012,115.441 310.59,58.0195 240,58.0195 Z" /><path
         id="path18"
         style="fill:#000000;fill-opacity:1;fill-rule:nonzero;stroke:none"
         d="m 240,282 c -52.93,0 -96.02,-43.051 -96.02,-96.02 0,-52.929 43.09,-95.9683 96.02,-95.9683 52.93,0 96.02,43.0393 96.02,95.9683 0,52.969 -43.09,96.02 -96.02,96.02 z m 0,-176.02 c -44.102,0 -80,35.899 -80,80 0,44.149 35.898,80 80,80 44.102,0 80,-35.851 80,-80 0,-44.101 -35.898,-80 -80,-80 z" /><path
         id="path20"
         style="fill:#000000;fill-opacity:1;fill-rule:nonzero;stroke:none"
         d="m 416.02,290.012 c -17.661,0 -32.04,-14.383 -32.04,-31.992 0,-17.661 14.379,-32.04 32.04,-32.04 17.609,0 31.992,14.379 31.992,32.04 0,17.609 -14.383,31.992 -31.992,31.992 z m 0,-48.012 c -8.829,0 -16.02,7.191 -16.02,16.02 0,8.781 7.191,15.968 16.02,15.968 8.781,0 15.968,-7.187 15.968,-15.968 0,-8.829 -7.187,-16.02 -15.968,-16.02 z" /></g></g></svg>