<?xml version="1.0" standalone="no"?>
<!DOCTYPE svg PUBLIC "-//W3C//DTD SVG 20010904//EN"
 "http://www.w3.org/TR/2001/REC-SVG-20010904/DTD/svg10.dtd">
<svg version="1.0" xmlns="http://www.w3.org/2000/svg"
 width="300.000000pt" height="427.000000pt" viewBox="0 0 300.000000 427.000000"
 preserveAspectRatio="xMidYMid meet">
<metadata>
Created by potrace 1.10, written by Peter Selinger 2001-2011
</metadata>
<g transform="translate(0.000000,427.000000) scale(0.050000,-0.050000)"
fill="#000000" stroke="none">
<path d="M2660 8518 c-1123 -144 -2020 -840 -2412 -1870 -352 -925 -291 -2025
157 -2854 80 -147 2573 -3772 2595 -3772 6 0 330 463 720 1029 391 566 951
1378 1246 1804 794 1147 919 1419 995 2161 212 2073 -1369 3751 -3301 3502z
m775 -328 c1817 -295 2804 -2422 1931 -4160 -85 -169 -2335 -3450 -2366 -3450
-31 0 -2281 3281 -2367 3451 -566 1126 -335 2636 531 3460 600 571 1449 832
2271 699z"/>
<path d="M2630 7093 c-498 -162 -885 -592 -962 -1068 l-13 -85 130 0 130 0 11
81 c49 367 567 859 904 859 48 0 50 5 50 130 0 155 -14 159 -250 83z"/>
<path d="M3180 7015 l0 -130 82 -11 c361 -48 812 -493 871 -859 l12 -75 129 0
130 0 -14 85 c-87 528 -590 1028 -1115 1105 l-95 15 0 -130z"/>
<path d="M2934 6297 c-419 -62 -592 -572 -303 -894 332 -369 935 -133 936 367
0 338 -288 578 -633 527z m299 -209 c90 -51 187 -211 187 -307 -1 -431 -583
-553 -749 -156 -143 342 234 652 562 463z"/>
<path d="M1663 5530 c87 -553 552 -1024 1114 -1126 l103 -19 0 127 c0 123 -2
128 -55 139 -450 96 -791 421 -899 859 l-32 130 -124 0 -124 0 17 -110z"/>
<path d="M4152 5615 c-4 -14 -17 -70 -30 -125 -99 -412 -446 -741 -887 -839
-53 -11 -55 -16 -55 -139 l0 -127 95 18 c573 106 1125 685 1125 1179 0 64
-232 95 -248 33z"/>
</g>
</svg>
