<?xml version="1.0" encoding="utf-8"?>
<!-- Generator: Adobe Illustrator 16.0.3, SVG Export Plug-In . SVG Version: 6.00 Build 0)  -->
<!DOCTYPE svg PUBLIC "-//W3C//DTD SVG 1.1//EN" "http://www.w3.org/Graphics/SVG/1.1/DTD/svg11.dtd">
<svg version="1.1"
	 id="svg2" xmlns:dc="http://purl.org/dc/elements/1.1/" xmlns:cc="http://creativecommons.org/ns#" xmlns:rdf="http://www.w3.org/1999/02/22-rdf-syntax-ns#" xmlns:svg="http://www.w3.org/2000/svg"
	 xmlns="http://www.w3.org/2000/svg" xmlns:xlink="http://www.w3.org/1999/xlink" x="0px" y="0px" width="546.666px"
	 height="377.334px" viewBox="0 0 546.666 377.334" enable-background="new 0 0 546.666 377.334" xml:space="preserve">
<g id="g10" transform="matrix(1.3333333,0,0,-1.3333333,0,377.33333)">
	<g id="g12" transform="scale(0.1)">
		<g id="g14">
			<g>
				<g id="g16">
					<path id="path22" d="M900.002,1802.018c494.839,0,896.016-401.177,896.016-896.016c0-494.846-401.177-896.023-896.016-896.023
						S3.979,411.156,3.979,906.003l-3.977,128.005c0,989.693,802.302,1791.995,1791.988,1791.995v-511.992
						c-341.873,0-663.318-133.169-905.076-374.92c-46.56-46.531-89.026-96.064-127.346-148.088
						C805.351,1798.232,852.233,1802.018,900.002,1802.018z M3203.982,1802.018c494.846,0,896.016-401.177,896.016-896.016
						c0-494.846-401.17-896.023-896.016-896.023S2308.01,411.156,2308.01,906.003l-4.028,128.005
						c0,989.693,802.31,1791.995,1792.039,1791.995v-511.992c-341.924,0-663.362-133.169-905.12-374.92
						c-46.523-46.531-89.026-96.064-127.31-148.088C3109.338,1798.232,3156.206,1802.018,3203.982,1802.018L3203.982,1802.018z"/>
				</g>
			</g>
		</g>
	</g>
</g>
</svg>
