<?xml version="1.0" encoding="UTF-8" standalone="no"?>
<svg
   xmlns:dc="http://purl.org/dc/elements/1.1/"
   xmlns:cc="http://creativecommons.org/ns#"
   xmlns:rdf="http://www.w3.org/1999/02/22-rdf-syntax-ns#"
   xmlns:svg="http://www.w3.org/2000/svg"
   xmlns="http://www.w3.org/2000/svg"
   viewBox="0 0 50.133331 64"
   height="64"
   width="50.133331"
   xml:space="preserve"
   id="svg2"
   version="1.1"><metadata
     id="metadata8"><rdf:RDF><cc:Work
         rdf:about=""><dc:format>image/svg+xml</dc:format><dc:type
           rdf:resource="http://purl.org/dc/dcmitype/StillImage" /></cc:Work></rdf:RDF></metadata><defs
     id="defs6" /><g
     transform="matrix(1.3333333,0,0,-1.3333333,0,64)"
     id="g10"><g
       transform="scale(0.1)"
       id="g12"><path
         id="path14"
         style="fill:#231f20;fill-opacity:1;fill-rule:nonzero;stroke:none"
         d="M 0,479.996 V 0 H 376.016 V 363.316 L 259.297,479.996 Z M 16.0195,463.977 H 248.008 V 351.988 H 360 V 16.0156 H 16.0195 Z m 247.9645,-11.282 84.688,-84.687 h -84.688 v 84.687" /><path
         id="path16"
         style="fill:#231f20;fill-opacity:1;fill-rule:nonzero;stroke:none"
         d="m 80,343.98 h 71.992 c 4.418,0 8.008,3.598 8.008,8.012 0,4.418 -3.59,8.008 -8.008,8.008 H 80 c -4.4102,0 -8.0078,-3.59 -8.0078,-8.008 0,-4.414 3.5976,-8.012 8.0078,-8.012" /><path
         id="path18"
         style="fill:#231f20;fill-opacity:1;fill-rule:nonzero;stroke:none"
         d="M 98.3359,280 H 170.32 c 4.422,0 8.016,3.598 8.016,8.008 0,4.426 -3.594,8.012 -8.016,8.012 H 98.3359 c -4.414,0 -8.0117,-3.586 -8.0117,-8.012 0,-4.41 3.5977,-8.008 8.0117,-8.008" /><path
         id="path20"
         style="fill:#231f20;fill-opacity:1;fill-rule:nonzero;stroke:none"
         d="m 158.336,280 h 71.984 c 4.426,0 8.02,3.598 8.02,8.008 0,4.426 -3.594,8.012 -8.02,8.012 h -71.984 c -4.41,0 -8.008,-3.586 -8.008,-8.012 0,-4.41 3.598,-8.008 8.008,-8.008" /><path
         id="path22"
         style="fill:#231f20;fill-opacity:1;fill-rule:nonzero;stroke:none"
         d="m 80,280 h 40 c 4.41,0 8.008,3.59 8.008,8.008 0,4.414 -3.598,8.012 -8.008,8.012 H 80 c -4.4102,0 -8.0078,-3.598 -8.0078,-8.012 C 71.9922,283.59 75.5898,280 80,280" /><path
         id="path24"
         style="fill:#231f20;fill-opacity:1;fill-rule:nonzero;stroke:none"
         d="m 200,280 h 56.016 c 4.414,0 7.968,3.59 7.968,8.008 0,4.414 -3.554,8.012 -7.968,8.012 H 200 c -4.414,0 -8.008,-3.598 -8.008,-8.012 0,-4.418 3.594,-8.008 8.008,-8.008" /><path
         id="path26"
         style="fill:#231f20;fill-opacity:1;fill-rule:nonzero;stroke:none"
         d="m 154.34,293.59 c -1.531,-1.442 -2.348,-3.512 -2.348,-5.582 0,-2.067 0.817,-4.18 2.348,-5.707 1.48,-1.403 3.59,-2.301 5.66,-2.301 2.07,0 4.141,0.82 5.66,2.379 1.449,1.492 2.348,3.562 2.348,5.629 0,2.07 -0.899,4.183 -2.348,5.664 -3,2.969 -8.39,2.969 -11.32,-0.082" /><path
         id="path28"
         style="fill:#231f20;fill-opacity:1;fill-rule:nonzero;stroke:none"
         d="M 176.02,231.992 H 120 c -4.41,0 -8.008,-3.554 -8.008,-8.008 0,-4.414 3.598,-7.968 8.008,-7.968 h 56.02 c 4.41,0 7.96,3.554 7.96,7.968 0,4.454 -3.55,8.008 -7.96,8.008" /><path
         id="path30"
         style="fill:#231f20;fill-opacity:1;fill-rule:nonzero;stroke:none"
         d="M 136.07,232.039 H 80.0469 c -4.4063,0 -8.0078,-3.555 -8.0078,-8.008 0,-4.414 3.6015,-7.957 8.0078,-7.957 H 136.07 c 4.41,0 7.957,3.543 7.957,7.957 0,4.453 -3.547,8.008 -7.957,8.008" /><path
         id="path32"
         style="fill:#231f20;fill-opacity:1;fill-rule:nonzero;stroke:none"
         d="m 80,216.016 c 2.0703,0 4.1406,0.871 5.6602,2.304 1.5312,1.524 2.3476,3.594 2.3476,5.664 0,2.11 -0.8164,4.18 -2.3476,5.704 -3,2.972 -8.3204,2.972 -11.3204,0 -1.5312,-1.524 -2.3476,-3.516 -2.3476,-5.704 0,-2.07 0.8984,-4.14 2.3476,-5.664 1.4805,-1.433 3.5899,-2.304 5.6602,-2.304" /><path
         id="path34"
         style="fill:#231f20;fill-opacity:1;fill-rule:nonzero;stroke:none"
         d="m 316.602,179.18 c -5.625,-1.992 -10.157,-6.289 -12.422,-11.797 -2.293,-5.496 -2.149,-11.797 0.429,-17.188 1.407,-2.929 -0.222,-5.039 -1.015,-5.808 -0.625,-0.637 -2.266,-1.77 -4.492,-1.34 l -1.758,0.547 c -0.742,0.312 -1.485,0.508 -2.266,0.742 -0.547,0.156 -1.094,0.391 -1.64,0.547 -0.782,0.156 -1.602,0.195 -2.422,0.312 -0.625,0.078 -1.25,0.196 -1.914,0.196 -0.782,0.039 -1.524,-0.078 -2.305,-0.157 -0.664,-0.078 -1.328,-0.039 -1.992,-0.195 -1.446,-0.234 -2.813,-0.652 -4.192,-1.211 -0.34,-0.156 -0.652,-0.39 -1.004,-0.547 -0.976,-0.468 -1.992,-0.937 -2.89,-1.562 -1.055,-0.742 -2.071,-1.641 -2.969,-2.578 -0.117,-0.078 -0.234,-0.157 -0.352,-0.274 -2.031,-2.148 -3.593,-4.687 -4.609,-7.5 -1.055,-3.047 -3.711,-3.359 -4.805,-3.359 -1.054,0 -3.711,0.312 -4.804,3.398 -1.016,2.813 -2.578,5.352 -4.61,7.461 -0.078,0.078 -0.156,0.156 -0.273,0.235 -0.938,0.976 -1.953,1.836 -3.047,2.617 -0.859,0.586 -1.836,1.054 -2.773,1.523 -0.391,0.156 -0.743,0.43 -1.133,0.586 -0.156,0.078 -0.352,0.117 -0.508,0.156 -1.172,0.469 -2.344,0.821 -3.555,1.055 -0.976,0.195 -1.953,0.234 -2.929,0.313 -0.352,0 -0.704,0.078 -1.055,0.078 h -0.078 c -3.008,0 -5.899,-0.586 -8.36,-1.797 l -1.836,-0.547 c -2.304,-0.508 -3.984,0.664 -4.609,1.328 -0.781,0.781 -2.422,2.852 -1.016,5.82 2.54,5.379 2.696,11.653 0.43,17.149 -2.265,5.508 -6.836,9.805 -12.422,11.797 -3.086,1.093 -3.398,3.75 -3.398,4.804 0,1.094 0.312,3.75 3.398,4.844 5.625,1.992 10.157,6.289 12.422,11.785 2.305,5.52 2.149,11.77 -0.43,17.2 -1.406,2.929 0.235,5.039 1.016,5.781 0.781,0.793 2.852,2.422 5.82,1.015 5.379,-2.539 11.653,-2.722 17.149,-0.429 5.508,2.265 9.805,6.84 11.797,12.422 1.093,3.089 3.75,3.398 4.804,3.398 1.094,0 3.75,-0.309 4.844,-3.398 1.992,-5.622 6.289,-10.157 11.785,-12.422 5.52,-2.293 11.77,-2.149 17.2,0.429 2.929,1.407 5.039,-0.222 5.781,-1.015 0.793,-0.781 2.422,-2.852 1.015,-5.821 -2.539,-5.39 -2.695,-11.64 -0.429,-17.16 2.265,-5.496 6.836,-9.832 12.422,-11.824 3.086,-1.055 3.398,-3.711 3.398,-4.805 0,-1.054 -0.312,-3.711 -3.398,-4.804 M 263.984,91.3281 240,67.3047 v 62.0823 c 0.078,0 0.156,0 0.195,-0.051 0.418,-0.078 0.782,-0.156 1.055,-0.273 0.391,-0.157 0.938,-0.469 1.484,-0.95 0.508,-0.457 1.055,-1.121 1.368,-2.058 3.046,-8.555 10.859,-14.063 19.882,-14.063 9.063,0 16.875,5.508 19.922,14.063 0.313,0.937 0.821,1.601 1.367,2.058 0.547,0.481 1.094,0.793 1.485,0.95 0.234,0.078 0.625,0.195 1.015,0.273 0.079,0 0.157,0.051 0.235,0.051 V 67.3047 Z m 57.969,112.5779 c -1.875,0.664 -2.695,2.071 -3.008,2.852 -0.312,0.781 -0.742,2.344 0.118,4.14 3.867,8.204 2.265,17.618 -4.141,24.024 -6.406,6.367 -15.859,8.008 -23.984,4.137 -1.836,-0.86 -3.399,-0.43 -4.18,-0.11 -0.781,0.309 -2.188,1.129 -2.852,3 -3.047,8.559 -10.859,14.071 -19.922,14.071 -9.023,0 -16.836,-5.512 -19.882,-14.071 -0.664,-1.871 -2.071,-2.691 -2.852,-3 -0.781,-0.32 -2.383,-0.75 -4.18,0.11 -8.164,3.871 -17.578,2.269 -23.984,-4.137 -6.406,-6.406 -8.008,-15.82 -4.141,-23.984 0.86,-1.836 0.442,-3.399 0.118,-4.18 -0.352,-0.781 -1.172,-2.188 -3.008,-2.852 -8.555,-3.047 -14.063,-10.859 -14.063,-19.922 0,-9.023 5.508,-16.836 14.063,-19.882 1.836,-0.664 2.656,-2.071 3.008,-2.852 0.324,-0.781 0.742,-2.383 -0.118,-4.18 -3.867,-8.164 -2.265,-17.578 4.141,-23.984 3.086,-3.086 6.914,-5.039 10.898,-5.82 V 28.6719 l 40,40 40,-40 v 98.5941 c 4.024,0.781 7.852,2.734 10.938,5.82 6.406,6.406 8.008,15.82 4.141,23.984 -0.86,1.797 -0.43,3.399 -0.118,4.18 0.313,0.781 1.133,2.188 3.008,2.852 8.555,3.046 14.063,10.859 14.063,19.882 0,9.063 -5.508,16.875 -14.063,19.922" /></g></g></svg>