<?xml version="1.0" standalone="no"?>
<!DOCTYPE svg PUBLIC "-//W3C//DTD SVG 20010904//EN"
 "http://www.w3.org/TR/2001/REC-SVG-20010904/DTD/svg10.dtd">
<svg version="1.0" xmlns="http://www.w3.org/2000/svg"
 width="300.000000pt" height="197.000000pt" viewBox="0 0 300.000000 197.000000"
 preserveAspectRatio="xMidYMid meet">
<metadata>
Created by potrace 1.10, written by Peter Selinger 2001-2011
</metadata>
<g transform="translate(0.000000,197.000000) scale(0.100000,-0.100000)"
fill="#000000" stroke="none">
<path d="M487 1472 l-487 -487 490 -490 489 -489 36 34 c19 19 35 39 35 44 0
6 -187 198 -415 426 l-415 415 1390 3 1390 2 0 55 0 55 -1390 2 -1389 3 414
415 c228 228 414 420 415 426 0 10 -61 74 -71 74 -2 0 -223 -219 -492 -488z"/>
</g>
</svg>
