<?xml version="1.0" standalone="no"?>
<!DOCTYPE svg PUBLIC "-//W3C//DTD SVG 20010904//EN"
 "http://www.w3.org/TR/2001/REC-SVG-20010904/DTD/svg10.dtd">
<svg version="1.0" xmlns="http://www.w3.org/2000/svg"
 width="300.000000pt" height="214.000000pt" viewBox="0 0 300.000000 214.000000"
 preserveAspectRatio="xMidYMid meet">
<metadata>
Created by potrace 1.10, written by Peter Selinger 2001-2011
</metadata>
<g transform="translate(0.000000,214.000000) scale(0.050000,-0.050000)"
fill="#000000" stroke="none">
<path d="M244 4228 c-57 -28 -103 -58 -103 -65 3 -21 2836 -2433 2859 -2433
23 0 2856 2412 2859 2433 0 7 -46 37 -103 65 l-104 52 -2652 0 -2652 0 -104
-52z"/>
<path d="M0 2131 l0 -1776 60 47 c162 128 1998 1690 1999 1701 1 13 -34 44
-1179 1036 -424 366 -795 689 -825 717 l-55 51 0 -1776z"/>
<path d="M5699 3643 c-160 -139 -621 -540 -1025 -890 -404 -351 -733 -643
-733 -650 1 -7 462 -403 1025 -879 l1024 -866 5 879 c3 484 3 1280 0 1769 l-5
890 -291 -253z"/>
<path d="M1193 1025 c-578 -492 -1051 -901 -1052 -908 0 -7 46 -37 103 -65
l104 -52 2652 0 2652 0 104 52 c57 28 103 58 102 65 -2 17 -2071 1782 -2104
1794 -14 6 -185 -130 -381 -301 -196 -170 -364 -310 -373 -310 -9 0 -177 140
-372 310 -196 171 -363 310 -371 310 -8 0 -487 -403 -1064 -895z"/>
</g>
</svg>
