<?xml version="1.0" standalone="no"?>
<!DOCTYPE svg PUBLIC "-//W3C//DTD SVG 20010904//EN"
 "http://www.w3.org/TR/2001/REC-SVG-20010904/DTD/svg10.dtd">
<svg version="1.0" xmlns="http://www.w3.org/2000/svg"
 width="300.000000pt" height="449.000000pt" viewBox="0 0 300.000000 449.000000"
 preserveAspectRatio="xMidYMid meet">
<metadata>
Created by potrace 1.10, written by Peter Selinger 2001-2011
</metadata>
<g transform="translate(0.000000,449.000000) scale(0.050000,-0.050000)"
fill="#000000" stroke="none">
<path d="M2673 8959 c-1444 -168 -2532 -1297 -2653 -2754 -25 -306 -25 -3124
0 -3430 215 -2599 3351 -3715 5150 -1832 480 502 750 1114 810 1832 25 306 25
3124 0 3430 -141 1702 -1636 2948 -3307 2754z m707 -339 c1174 -182 2092
-1103 2250 -2260 43 -307 43 -3433 0 -3740 -215 -1573 -1799 -2614 -3331
-2189 -1026 285 -1787 1148 -1929 2189 -43 307 -43 3433 0 3740 197 1438 1585
2480 3010 2260z"/>
<path d="M2889 7931 l-49 -49 0 -812 c0 -863 1 -872 100 -907 73 -25 171 3
200 58 12 22 20 357 20 849 l0 812 -49 49 c-31 31 -72 49 -111 49 -39 0 -80
-18 -111 -49z"/>
</g>
</svg>
