<?xml version="1.0" standalone="no"?>
<!DOCTYPE svg PUBLIC "-//W3C//DTD SVG 20010904//EN"
 "http://www.w3.org/TR/2001/REC-SVG-20010904/DTD/svg10.dtd">
<svg version="1.0" xmlns="http://www.w3.org/2000/svg"
 width="300.000000pt" height="299.000000pt" viewBox="0 0 300.000000 299.000000"
 preserveAspectRatio="xMidYMid meet">
<metadata>
Created by potrace 1.10, written by Peter Selinger 2001-2011
</metadata>
<g transform="translate(0.000000,299.000000) scale(0.050000,-0.050000)"
fill="#000000" stroke="none">
<path d="M866 5952 c-201 -65 -681 -486 -783 -687 -229 -448 38 -1381 666
-2325 1115 -1677 3142 -3059 4279 -2918 228 29 307 78 584 362 545 560 505
909 -162 1401 -532 392 -814 393 -1220 4 -239 -229 -287 -246 -503 -170 -510
180 -1745 1368 -2049 1972 -149 297 -138 366 98 617 400 425 399 678 -5 1229
-313 426 -628 606 -905 515z"/>
</g>
</svg>
