<?xml version="1.0" encoding="UTF-8" standalone="no"?>
<svg
   xmlns:dc="http://purl.org/dc/elements/1.1/"
   xmlns:cc="http://creativecommons.org/ns#"
   xmlns:rdf="http://www.w3.org/1999/02/22-rdf-syntax-ns#"
   xmlns:svg="http://www.w3.org/2000/svg"
   xmlns="http://www.w3.org/2000/svg"
   viewBox="0 0 522.66669 524"
   height="524"
   width="522.66669"
   xml:space="preserve"
   id="svg2"
   version="1.1"><metadata
     id="metadata8"><rdf:RDF><cc:Work
         rdf:about=""><dc:format>image/svg+xml</dc:format><dc:type
           rdf:resource="http://purl.org/dc/dcmitype/StillImage" /></cc:Work></rdf:RDF></metadata><defs
     id="defs6" /><g
     transform="matrix(1.3333333,0,0,-1.3333333,0,524)"
     id="g10"><g
       transform="scale(0.1)"
       id="g12"><path
         id="path14"
         style="fill:#000000;fill-opacity:1;fill-rule:nonzero;stroke:none"
         d="m 3911.99,3255.61 h -822.38 c 51.17,68.79 81.6,155.2 81.6,249.57 0,258.4 -216.01,416.02 -416.01,416.02 -108.01,0 -215.98,-49.61 -291.22,-124.8 l -507.96,-508.01 -508.01,508.01 c -75.2,83.2 -183.21,124.8 -291.21,124.8 -199.999,0 -416.019,-158.4 -416.019,-416.02 0,-94.37 30.43,-180.78 81.598,-249.57 H 0 V 2265.18 H 332.809 V 9.98828 H 3578.4 V 2265.18 h 332.81 v 990.43 z M 2580.78,3679.6 c 58.44,58.4 132.81,75.19 174.42,75.19 124.8,0 249.6,-91.21 249.6,-249.61 0,-141.6 -108,-249.57 -249.6,-249.57 H 2156.8 Z M 908.012,3505.18 c 0,158.4 124.798,249.61 249.608,249.61 41.6,0 107.97,-16.79 174.37,-75.19 l 424.81,-423.99 h -599.18 c -141.6,0 -249.608,107.97 -249.608,249.57 z M 167.191,2431.59 v 657.62 H 1873.59 V 2431.59 Z M 500,2265.18 H 1873.59 V 176.398 H 500 Z M 3413.59,175.609 H 2040 V 2265.18 H 3413.59 Z M 3746.41,2431.59 H 2040 v 657.62 h 1706.41 z" /></g></g></svg>