<?xml version="1.0" encoding="UTF-8" standalone="no"?>
<svg
   xmlns:dc="http://purl.org/dc/elements/1.1/"
   xmlns:cc="http://creativecommons.org/ns#"
   xmlns:rdf="http://www.w3.org/1999/02/22-rdf-syntax-ns#"
   xmlns:svg="http://www.w3.org/2000/svg"
   xmlns="http://www.w3.org/2000/svg"
   viewBox="0 0 546.66669 377.33334"
   height="377.33334"
   width="546.66669"
   xml:space="preserve"
   id="svg2"
   version="1.1"><metadata
     id="metadata8"><rdf:RDF><cc:Work
         rdf:about=""><dc:format>image/svg+xml</dc:format><dc:type
           rdf:resource="http://purl.org/dc/dcmitype/StillImage" /></cc:Work></rdf:RDF></metadata><defs
     id="defs6"><clipPath
       id="clipPath20"
       clipPathUnits="userSpaceOnUse"><path
         id="path18"
         d="M 0,6 H 4100 V 2826 H 0 Z" /></clipPath></defs><g
     transform="matrix(1.3333333,0,0,-1.3333333,0,377.33333)"
     id="g10"><g
       transform="scale(0.1)"
       id="g12"><g
         id="g14"><g
           clip-path="url(#clipPath20)"
           id="g16"><path
             id="path22"
             style="fill:#000000;fill-opacity:1;fill-rule:nonzero;stroke:none"
             d="m 900,1802.02 c 494.84,0 896.02,-401.18 896.02,-896.02 C 1796.02,411.16 1394.84,9.98047 900,9.98047 405.16,9.98047 3.98047,411.16 3.98047,906 L 0,1034.01 C 0,2023.7 802.301,2826 1791.99,2826 v -511.99 c -341.87,0 -663.32,-133.17 -905.08,-374.92 -46.558,-46.53 -89.019,-96.06 -127.34,-148.09 45.782,7.23 92.66,11.02 140.43,11.02 z m 2303.98,0 C 3698.83,1802.02 4100,1400.84 4100,906 4100,411.16 3698.83,9.98047 3203.98,9.98047 2709.14,9.98047 2308.01,411.16 2308.01,906 l -4.03,128.01 c 0,989.69 802.31,1791.99 1792.04,1791.99 v -511.99 c -341.92,0 -663.36,-133.17 -905.12,-374.92 -46.52,-46.53 -89.02,-96.06 -127.31,-148.09 45.75,7.23 92.62,11.02 140.39,11.02 z" /></g></g></g></g></svg>